<svg version="1.0" xmlns="http://www.w3.org/2000/svg" xmlns:xlink="http://www.w3.org/1999/xlink" viewBox="0 0 121 82" preserveAspectRatio="xMidYMid meet" color-interpolation-filters="sRGB">
    <!-- <rect x="0" y="0" width="100%" height="100%" fill="#c822b0" fill-opacity="1"></rect> -->
    <g fill="#53a3f3">
        <polyline stroke="#53a3f3" stroke-width="4" fill-opacity="0" fill="#53a3f3" points="60,20 60,0 121,0 121,82 60,82 60,62"></polyline>
        <g transform="translate(0,20)">
            <g transform="translate(10,3)">
                <path d="M2.09-0.48L2.6-37.26 10.85-37.26Q11.04-24.31 11.04-23.3L11.04-23.3 10.85-24.03 23.2-37.26 33.36-37.26 16.66-19.17Q16.63-19.17 32.98-5.08L32.98-5.08 32.98-0.48 24.31-0.48 11.2-14.95 11.39-0.48 2.09-0.48ZM37.99-0.48L37.99-37.26 64.71-37.26Q69.09-33.55 69.09-33.42L69.09-33.42 69.09-0.48 37.99-0.48ZM60.81-31.45L47.23-31.77 46.31-6.28 59.92-5.97 60.81-31.45ZM93.85-6.28L94.8-37.26 102.45-37.26Q102.48-35.17 103.5-0.48L103.5-0.48 74.81-0.48 75.95-11.81 82.71-11.81 83.34-6.28 93.85-6.28Z" transform="translate(-2, 37)"></path>
            </g>
        </g>
    </g>
</svg>