<?xml version="1.0" encoding="utf-8"?>
<!-- Generator: Adobe Illustrator 26.2.1, SVG Export Plug-In . SVG Version: 6.00 Build 0)  -->
<svg version="1.1" xmlns="http://www.w3.org/2000/svg" x="0px" y="0px"
     viewBox="0 0 121 82" style="enable-background:new 0 0 121 82;" xml:space="preserve">
<style type="text/css">
	.st0{display:none;}
	.st1{display:inline;fill:#F4C21D;}
	.st2{fill:#53A3F3;fill-opacity:0;stroke:#53A3F3;stroke-width:4;}
	.st3{fill:#53A3F3;}
</style>
    <g id="BackendColor" class="st0">
	<rect class="st1" width="121" height="82"/>
</g>
    <g id="KOJ">
	<g id="KOJ-LOGO">
		<g>
			<polyline class="st2" points="59.1,21 59.1,2 119,2 119,80 59.1,80 59.1,61 			"/>
            <g transform="translate(0,20)">
				<g transform="translate(10,3)">
					<path class="st3" d="M0.1,35.6l0.5-35h8.1c0.1,8.2,0.2,12.6,0.2,13.3l0,0l-0.2-0.7L20.8,0.6h10L14.4,17.8c0,0,5.3,4.5,16,13.4
						l0,0v4.4h-8.5L9,21.9l0.2,13.8H0.1V35.6z M35.3,35.6v-35h26.2c2.9,2.4,4.3,3.6,4.3,3.7l0,0v31.3H35.3z M57.8,6.2L44.4,5.9
						l-0.9,24.2l13.4,0.3L57.8,6.2z M90.2,30.1l0.9-29.5h7.5c0,1.3,0.4,13,1,35l0,0H71.5l1.1-10.8h6.6l0.6,5.3
						C79.8,30.1,90.2,30.1,90.2,30.1z"/>
				</g>
			</g>
		</g>
	</g>
</g>
</svg>
